<svg xmlns="http://www.w3.org/2000/svg" xmlns:xlink="http://www.w3.org/1999/xlink" viewBox="0 0 499.49 382.47"><defs><style>.cls-1{fill:#0a72a0;}.cls-2{fill:#8ff4ff;opacity:0.11;}.cls-3{fill:#fff;}.cls-4{fill:url(#radial-gradient);}.cls-5{fill:#689bc2;}.cls-6{opacity:0.23;fill:url(#radial-gradient-2);}</style><radialGradient id="radial-gradient" cx="195.06" cy="143.89" r="62.01" gradientTransform="translate(-406.08 -230.09) scale(3.27 3.14)" gradientUnits="userSpaceOnUse"><stop offset="0" stop-color="#fff"/><stop offset="1" stop-color="#8ff4ff" stop-opacity="0.11"/></radialGradient><radialGradient id="radial-gradient-2" cx="192.78" cy="136.64" r="57.79" gradientTransform="translate(-406.08 -230.09) scale(3.27 3.14)" gradientUnits="userSpaceOnUse"><stop offset="0" stop-color="#fff"/><stop offset="1" stop-color="#8ff4ff" stop-opacity="0.81"/></radialGradient></defs><g id="Layer_2" data-name="Layer 2"><g id="OBJECTS"><path class="cls-1" d="M337.55,0V319.5C304.84,347,264.14,363.27,220,363.27c-46.53,0-89.23-18.06-122.74-48.33V73.46c0-21.26,8.13-40.42,21.11-53.85C130.18,7.46,145.94,0,163.3,0Z"/><path class="cls-2" d="M337.55,0V248.3L118.41,19.61C130.18,7.46,145.94,0,163.3,0Z"/><rect class="cls-3" x="147.93" y="51.4" width="143.51" height="9.73" rx="1.48"/><rect class="cls-3" x="147.93" y="90.66" width="143.51" height="9.73" rx="1.48"/><rect class="cls-3" x="147.93" y="129.91" width="143.51" height="9.73" rx="1.48"/><rect class="cls-3" x="147.93" y="169.17" width="143.51" height="9.73" rx="1.48"/><rect class="cls-3" x="147.93" y="208.43" width="143.51" height="9.73" rx="1.48"/><rect class="cls-3" x="147.93" y="247.69" width="143.51" height="9.73" rx="1.48"/><path class="cls-4" d="M464.89,141.66a229.06,229.06,0,0,1-2.22,31.94c-9,65.38-45.44,122.46-97.84,160.34a257.49,257.49,0,0,1-151.34,48.53c-59.9,0-114.89-20.05-158-53.59A244.75,244.75,0,0,1,0,268.83a235.76,235.76,0,0,0,55.44,32.39,240.66,240.66,0,0,0,92.05,18.13c99.17,0,183.89-59.47,217.34-143.24a209.85,209.85,0,0,0,8.35-25.34l-35.63-9.11L379.66,111,450,59.69A231.71,231.71,0,0,1,464.89,141.66Z"/><polygon class="cls-5" points="499.5 183 462.67 173.6 393.53 155.97 373.18 150.77 337.55 141.66 379.66 110.96 449.96 59.69 499.5 183"/><path class="cls-6" d="M230.57,323.88C94.3,372.36,2.28,271.31,0,268.83a235.76,235.76,0,0,0,55.44,32.39,240.66,240.66,0,0,0,92.05,18.13c99.17,0,183.89-59.47,217.34-143.24a209.85,209.85,0,0,0,8.35-25.34l-35.63-9.11L379.66,111,450,59.69S417.39,257.42,230.57,323.88Z"/></g></g></svg>